<svg width="90" height="70" viewBox="0 0 90 70" fill="none" xmlns="http://www.w3.org/2000/svg">
<g clip-path="url(#clip0_913_326)">
<path fill-rule="evenodd" clip-rule="evenodd" d="M81.2409 25.7096C82.9598 25.9854 84.495 24.138 85.8136 24.0263C86.2646 24.5088 85.6325 24.7529 85.5087 25.2505C85.1172 26.8242 85.4176 29.4591 85.5087 31.6779C85.5805 33.4231 85.443 34.1709 86.1184 35.8099C85.8255 36.1915 86.351 36.4387 85.966 36.7281C86.7603 38.5967 88.4087 37.3971 89.929 38.2584C90.5333 40.7155 87.1009 45.2236 86.2708 47.2874C86.0898 47.7378 86.2509 48.0756 86.1184 48.3586C85.7579 49.1284 84.9179 49.8029 84.5942 50.6541C84.2625 51.5256 84.1223 52.2896 83.6797 53.1026C83.1768 54.0264 82.4336 54.8466 82.003 55.7042C81.7494 56.2094 81.7986 56.9165 81.5458 57.3876C81.3574 57.7385 80.9234 57.9062 80.7837 58.1528C80.644 58.3991 80.7954 58.9084 80.6312 59.224C79.9975 60.4423 79.317 61.6407 78.6497 63.0498C77.7873 64.8711 76.261 69.5977 74.2295 69.9363C73.0071 70.1402 72.0564 69.8041 70.5714 69.6303C64.9188 68.9689 57.1851 67.9781 49.5371 67.1817C47.3317 66.952 44.0992 66.1446 42.2209 66.5696C40.5731 66.9425 39.2281 69.1571 37.3434 69.1712C35.2381 69.1871 33.2219 68.1074 31.8562 65.8044C30.0509 65.9106 28.6486 65.9282 26.9787 66.2635C26.1626 66.4273 24.9269 66.167 24.6924 66.2635C24.521 66.3341 24.3302 66.8621 24.2351 66.8757C24.1517 66.8876 22.8779 66.0032 22.1012 67.0287C21.6101 66.8258 19.7161 66.8172 19.3576 67.6408C18.1269 66.7405 15.3561 67.1848 14.7849 67.7939C11.3492 67.5225 9.10462 68.2306 3.81055 68.406C2.4767 68.4502 1.7745 68.9006 0.152422 67.7939C0.235187 67.3657 0.0844418 67.1008 0 66.4166C1.80818 65.6066 2.09977 62.4132 4.26782 62.1316C2.96903 64.0695 5.00706 63.2573 6.70657 63.662C5.64784 64.8269 4.65238 63.9279 3.81055 65.0393C3.8392 65.4696 4.3079 65.4581 4.42024 65.8044C8.81487 64.9878 11.7545 65.4497 16.4616 64.8862C22.0716 64.2147 26.6545 63.4395 32.161 63.662C32.8264 64.3935 32.6995 65.5977 33.3804 66.4166C33.8736 67.0099 35.248 67.8555 35.9716 67.9469C38.7736 68.3007 40.0213 66.3104 40.6967 64.2741C40.8739 64.2989 40.9678 64.2403 41.0015 64.1211C42.5789 64.1882 43.4256 64.5418 44.5072 64.5802C44.9773 64.5968 45.5647 64.431 46.3363 64.5802C47.2461 64.7559 47.9387 64.8296 48.9275 64.8862C51.6654 65.0431 54.5256 65.738 57.3107 66.1105C62.6971 66.8308 67.7529 67.035 71.9432 67.6408C71.7162 64.3466 71.3771 61.6669 71.0286 58.9179C70.7471 56.6973 71.1392 56.7453 69.1996 57.3876C67.7308 57.8739 66.0591 57.9119 64.9318 58.3058C61.5145 57.853 57.822 57.5927 53.5001 56.4694C52.3623 56.1736 51.4104 55.5362 50.2993 55.3982C46.4145 54.9156 41.7313 54.594 38.4103 57.3876C37.8138 57.8894 37.3672 58.5525 36.5813 58.9179C28.1185 52.1756 21.4199 56.9637 8.9929 55.8573C8.10367 55.778 7.50373 55.744 6.2493 55.5512C5.22091 55.3931 4.63454 54.964 3.81055 56.1633C4.00672 56.5785 4.56809 56.627 5.18235 56.6224C5.26283 56.945 6.9134 57.1983 7.6211 57.2346C11.6257 57.4396 14.2059 57.3971 20.1197 56.9285C23.7236 56.6431 28.1908 56.4206 31.2465 57.8467C31.7466 58.0801 32.1446 58.3171 32.3135 58.9179C31.3947 59.2267 30.5728 58.2579 29.4174 57.9997C25.3155 57.0835 20.4073 57.6421 16.1567 57.9997C13.6498 58.2106 10.92 58.06 8.68805 57.9997C8.37513 57.9913 7.70889 58.0537 7.31626 57.9997C5.57438 57.7602 4.16996 56.2152 3.65813 58.3058C5.42135 59.1539 6.68508 59.0521 9.29774 59.224C14.3252 59.5545 18.7941 58.5225 23.3206 58.4588C25.2385 58.4317 27.0371 58.8214 29.1126 59.377C29.6337 59.5166 30.5574 59.1459 30.6368 60.1422C25.1191 58.6272 21.7788 59.832 14.1752 60.1422C12.5675 60.2078 11.1012 60.1832 9.60258 60.1422C7.08595 60.0736 4.96621 58.7978 3.96297 60.7543C5.22518 61.7267 6.87286 61.3559 8.38321 61.3665C11.6208 61.3891 14.6816 61.5694 17.9858 61.2134C21.399 60.8457 24.045 60.1884 26.9787 60.6013C27.7233 61.3401 28.4182 60.4914 28.8078 61.5195C20.0606 60.9814 14.5741 63.0757 7.46868 62.4377C5.21497 62.2354 4.03552 61.535 2.59117 61.0604C2.3915 59.938 3.78007 59.9546 3.65813 59.377C3.35283 58.8071 3.20208 59.0281 2.43875 58.9179C2.03316 58.1098 2.84191 57.605 3.50571 57.0815C3.32813 56.5456 2.73902 56.4229 2.43875 56.0103C2.71311 55.5715 3.01125 55.1568 3.35328 54.786C2.73796 54.1286 1.81641 53.7786 0.914532 53.4087C1.46447 52.5598 2.5331 52.4572 3.35328 51.8784C4.7135 50.9186 5.91321 49.1836 7.01141 48.0525C8.06983 46.9623 9.27274 46.1581 8.84048 44.9919C7.60296 41.6531 8.66412 35.6167 14.1752 33.8204C14.2412 33.2441 13.8532 33.1235 13.5656 32.9022C10.0941 33.9418 7.47691 37.0439 7.16383 41.013C6.65779 41.2043 6.68645 40.7885 5.94446 40.86C3.45175 37.2461 0.865604 35.8726 1.06695 29.9946C3.54213 24.3108 10.8575 20.7937 15.3946 21.2717C15.5132 20.121 14.6618 17.1959 15.3946 15.9155C12.8592 13.3167 15.1715 8.86707 17.3761 6.27438C17.5697 6.04682 18.1602 5.85124 18.4431 5.50921C19.0811 4.73792 21.1639 2.60494 22.406 2.14247C22.7161 2.02708 23.2761 2.09029 23.473 1.98944C26.9256 0.219756 31.7875 0.00642742 35.2095 0.612134C35.9658 0.746039 36.7531 0.834033 37.0385 0.918201C37.9445 1.18555 39.5248 2.07973 39.7821 2.2955C40.0518 2.52153 39.9061 2.80755 40.087 3.06067C41.041 4.39635 42.5503 5.75881 43.2878 7.34561C49.1256 5.21783 53.4099 0.776492 60.8164 0.306067C60.9522 0.238273 61.0889 0.171704 61.1212 0C63.7264 0.42727 67.4496 -0.165582 70.5714 1.98944C71.0759 2.33759 71.4835 2.77924 72.0956 3.21371C74.0882 4.62819 75.8427 7.4382 76.9731 9.64112C77.8541 11.3582 78.7154 13.3566 79.107 15.1503C79.328 16.1629 80.0491 17.0608 80.174 17.7519C80.2156 17.9827 79.9676 18.29 80.0215 18.5171C80.1435 19.0288 80.5296 19.453 80.6312 20.2004C80.9041 22.2036 80.8263 23.4004 81.2409 25.7096ZM39.3249 3.82584C38.006 2.88943 36.4874 2.21945 34.9046 1.98944C29.9636 1.2714 25.7194 1.25426 21.9488 3.97887C21.7723 4.29902 22.0201 4.55397 21.4915 4.74404C21.1243 4.68145 21.1601 5.02348 20.7294 4.89707C18.7493 8.46903 15.5082 9.89882 15.8519 14.9973C17.5883 16.4676 19.2271 18.0359 21.1867 19.2822C19.5577 20.3682 18.1292 18.1828 16.7664 17.2928C15.8147 19.0934 16.4884 21.1618 17.681 23.5672C19.8428 20.7703 24.4552 22.0142 26.369 24.4854C26.7523 24.1051 27.6093 24.2003 27.8932 23.7202C27.1621 20.7931 29.6641 18.1066 32.6183 18.6701C34.2776 18.9864 35.7209 20.5157 36.5813 21.1186C38.2922 18.765 39.5451 16.6967 41.1539 14.3852C41.2254 13.8543 40.3267 14.2975 40.2394 13.9261C41.554 12.6735 43.0697 12.4272 43.4403 10.4063C41.7911 8.26825 40.8659 6.18868 39.3249 3.82584ZM44.6596 20.2004C47.0661 19.3159 47.9373 17.0727 48.775 14.5382C49.2396 13.1327 49.2739 10.0024 47.5557 9.33505C44.6374 8.20168 42.5536 12.9593 42.983 15.1503C42.4326 15.7949 41.3291 16.1813 40.6967 16.9867C40.1338 17.7037 39.6665 19.0224 39.02 20.0474C38.2814 21.2186 37.2899 22.306 37.191 23.1081C37.0837 23.9778 37.6388 24.8349 37.4958 25.7096C37.3499 26.6026 36.7242 26.8562 36.7337 27.6991C34.8685 28.9898 33.4356 29.6809 31.5513 28.9233C29.9076 28.2625 29.1041 26.2693 27.436 25.7096C26.9432 26.755 27.5698 27.4949 27.7408 28.3112C28.1095 30.0708 27.5288 31.399 28.6553 33.0553C30.3271 32.1741 29.9989 30.02 31.3989 29.0764C31.4437 29.3884 31.8114 29.3765 31.8562 29.6885C31.6481 31.4421 30.5021 32.8309 29.4174 34.1265C32.4252 36.4123 37.606 36.882 41.6112 34.7386C44.7359 31.636 45.5138 26.3753 44.3548 21.2717C43.8991 21.066 43.2967 21.0077 43.2878 20.3535C43.5713 19.7077 44.0698 20.0596 44.6596 20.2004ZM29.8747 20.8126C27.2771 24.0076 31.6776 29.7444 35.5143 26.7809C37.3312 22.626 32.3988 18.6777 29.8747 20.8126ZM19.51 23.8732C19.3195 24.7443 18.7843 25.0501 18.7479 25.7096C18.7438 25.7849 19.0477 27.2267 19.0527 27.24C20.2003 30.2602 25.9352 31.0741 25.7593 27.393C25.6942 26.0302 24.6168 25.5297 24.0827 24.3323C22.3283 23.6054 21.3772 23.4019 19.51 23.8732ZM73.9247 28.0051C72.542 27.6166 70.8073 26.9729 69.8093 28.0051C67.8188 32.225 64.977 36.5155 60.8164 39.0236C59.8144 38.2302 60.5851 37.6089 60.3591 36.8811C59.4426 33.9317 54.4287 31.2046 52.4332 32.9022C54.0897 33.4505 56.0094 34.2809 57.3107 35.9629C59.0757 38.2445 58.1106 39.9779 55.634 41.7782C55.1624 41.9168 54.7945 42.1595 54.4146 42.3903C54.5485 44.4134 52.9011 45.8317 51.0614 46.3692C49.4472 45.0546 48.1544 46.48 46.3363 45.1449C44.8941 45.7676 43.4791 44.2847 43.2878 42.8494C41.0675 43.5015 38.1983 48.9642 35.8192 47.5934C35.3729 47.3363 35.3637 46.7339 35.5143 46.0631C36.1429 43.2623 41.0504 38.379 43.5927 37.6463C44.0213 37.3261 43.568 37.071 44.05 36.8811C45.3669 36.1629 46.816 35.5774 48.0129 34.7386C48.1696 33.0473 49.7484 32.3273 49.842 30.6067C48.5781 30.1397 47.6387 29.6278 46.0314 29.6885C44.8883 32.1392 43.2514 35.2127 40.6967 36.575C39.8769 37.0121 38.8249 37.0242 37.8007 37.1872C32.8193 37.9803 27.6951 35.5393 23.1681 31.6779C21.8043 31.8036 21.2696 31.0369 19.8149 30.9128C19.5815 32.7806 18.1664 33.9015 18.1382 35.5038C20.0028 36.5273 23.9191 35.4833 23.1681 38.4114C21.2969 40.9454 18.257 40.8163 15.8519 39.0236C13.8789 41.1974 12.4357 44.7519 9.90743 46.3692C8.15793 49.2546 5.19012 50.917 3.35328 53.7148C8.65193 55.8563 17.6617 54.1067 23.1681 53.5617C27.6304 53.9791 32.1772 54.0489 36.4289 57.0815C37.9177 53.4898 40.2458 50.0129 42.3733 45.757C42.8726 45.6263 43.0934 44.6402 43.5927 44.9919C42.0217 49.3328 39.518 52.2634 37.9531 56.3164C39.8564 55.1515 41.4661 53.944 43.2878 53.5617C47.2801 52.7239 50.969 54.1994 55.634 55.3982C60.6292 56.6818 65.8346 57.675 70.5714 55.7042C70.8488 55.058 70.9896 54.7693 71.0286 54.1739C71.3283 54.2196 71.3309 53.9671 71.4859 53.8678C71.5734 52.4902 72.4942 51.6915 73.1626 50.348C73.5561 49.5569 73.5435 48.6039 73.9247 47.7465C74.3386 46.8156 75.1605 45.9949 75.6013 44.9919C76.9216 41.9877 78.3671 39.0594 79.4118 36.1159C79.5881 35.6195 80.1125 35.2299 80.3264 34.7386C80.416 34.5326 80.2494 34.1748 80.3264 33.9735C80.5303 33.44 81.1255 33.0257 81.3933 32.4431C82.351 30.36 83.4558 27.7904 84.2894 26.0157C84.5233 25.9791 84.3116 25.7638 84.1369 25.7096C81.2775 27.3945 77.1347 27.4282 73.9247 28.0051ZM81.0885 34.2795C80.3224 37.1657 79.3646 37.4257 78.4973 40.5539C76.8891 44.0167 74.757 47.5201 73.315 51.2662C73.1723 51.6366 73.3096 52.0952 73.1626 52.4905C72.7237 53.6704 71.7296 54.7496 71.4859 55.7042C71.1992 56.827 71.5725 58.4056 72.0956 59.377C72.9371 56.3707 74.333 54.9447 75.2965 51.8784C76.3366 50.3076 77.1534 48.7475 78.0401 46.9813C78.9656 45.1379 79.574 42.7903 80.9361 41.3191C80.4934 43.0037 79.6105 44.7935 78.8022 46.2161C78.6369 46.5069 78.7029 47.2076 78.4973 47.7465C77.7215 49.7808 76.0319 52.1237 74.9916 54.4799C73.8517 57.0621 71.9945 59.6086 72.4004 61.5195C75.1407 56.0111 78.115 49.4061 81.5458 43.7676C82.0169 44.6244 81.0335 44.5941 81.0885 45.757C80.4055 45.9072 80.6724 46.5973 80.4788 46.9813C78.23 51.4422 76.1349 55.2799 73.7722 60.4483C72.8839 61.5942 72.7205 62.2121 72.4004 63.968C73.2365 62.9805 73.7448 61.7715 74.3819 60.4483C75.5175 58.0894 76.8274 56.0931 78.0401 53.7148C79.0021 51.8282 79.1348 49.1167 80.9361 47.8995C80.4127 49.4386 79.5492 50.8127 78.9546 52.1844C78.7534 52.6486 78.8541 53.2378 78.6497 53.7148C77.195 57.1111 74.6606 60.0885 73.6198 63.968C73.1301 64.4955 72.6364 65.4826 73.0101 65.9575C74.0698 64.9661 74.0204 63.5766 74.6868 62.2847C75.0892 61.5047 75.9636 60.9165 76.211 60.2952C76.2956 60.083 76.1063 59.7313 76.211 59.5301C76.3588 59.2456 76.8724 59.1006 76.9731 58.7649C77.2404 57.8747 77.2865 57.4826 77.5828 56.9285C78.0689 56.0196 78.351 55.138 78.8022 54.1739C80.6166 50.2957 82.1934 47.6251 84.4418 43.3085C85.1048 42.0357 86.0693 40.4789 86.2708 39.1766C84.0764 36.2743 84.6229 30.3645 84.1369 28.1582C82.8947 30.6404 82.6935 32.2273 81.0885 34.2795ZM24.6924 31.5249C25.5121 31.9488 26.4449 32.9992 27.2835 32.9022C26.9564 31.3019 27.4212 30.4685 26.6738 29.2294C26.5062 30.4904 25.0841 30.4889 24.6924 31.5249ZM49.0799 34.2795C51.197 33.206 53.361 31.486 53.9574 29.3824C51.3723 29.2585 49.5813 32.4202 49.0799 34.2795ZM57.3107 38.8705C57.3152 38.205 57.471 37.2236 57.1582 36.8811C55.6848 35.267 53.3581 33.5745 51.5186 33.9735C50.4634 34.2024 48.8889 35.459 48.0129 35.9629C46.2355 36.9856 44.5932 37.7999 43.1354 38.8705C42.0049 39.7007 40.8718 40.5461 40.2394 41.013C39.355 41.666 38.2655 43.2556 37.8007 43.9206C38.0299 44.3536 38.4724 44.5726 38.5628 45.1449C38.1253 45.7771 37.274 45.9936 36.8861 46.6752C38.7787 45.9159 40.5703 44.096 42.2209 42.6964C42.8243 42.1846 43.6355 41.3983 44.05 40.86C44.6945 40.0227 45.0636 38.1372 46.4887 38.8705C44.6982 40.1283 43.3397 44.1803 46.0314 44.2267C45.8398 41.8401 46.8838 39.8802 48.4702 39.7887C47.1367 41.6065 45.6716 44.3335 48.6226 44.8388C48.7238 43.2701 48.7927 40.985 50.7565 40.0948C50.7965 41.5621 48.9799 43.2796 49.5371 44.3797C50.5373 46.3545 53.6443 44.5908 53.6525 42.6964C52.6967 42.3185 52.358 44.0123 51.3662 43.3085C52.8051 41.4782 55.7255 40.9212 57.3107 38.8705ZM13.1083 34.8917C12.2918 35.3957 12.2386 36.4042 10.9744 36.7281C9.5724 38.9968 8.63531 42.4437 10.0599 44.9919C12.3322 43.4222 11.291 40.0631 13.5656 38.4114C15.4733 36.1637 19.7458 41.6198 21.9488 37.7993C21.0647 37.432 20.5288 38.2963 19.9673 38.4114C19.9023 38.1196 19.5318 38.1344 19.6624 37.6463C20.1909 37.5783 21.1537 37.664 21.4915 36.7281C17.934 38.2446 16.6292 32.7186 13.1083 34.8917ZM12.9559 41.6251C13.1708 40.5204 15.1015 39.6585 14.4801 38.7175C13.6591 39.3832 12.2014 40.759 12.9559 41.6251ZM36.7337 45.604C37.3794 45.6401 37.6365 45.2863 37.8007 44.8388C37.51 44.7736 37.5248 44.4016 37.0385 44.5328C36.7093 44.9766 36.8343 44.9291 36.7337 45.604Z" fill="#0B0014"/>
<path fill-rule="evenodd" clip-rule="evenodd" d="M25.302 14.2321C23.7588 12.2754 24.5936 9.20222 25.7593 6.73348C26.6517 4.84367 28.1686 2.3734 30.0271 2.44854C30.2044 3.12036 29.5371 3.8996 28.8077 4.13191C26.9299 7.05225 25.0947 9.95866 25.302 14.2321Z" fill="#0B0014"/>
<path fill-rule="evenodd" clip-rule="evenodd" d="M31.399 3.06067C31.3176 3.79523 31.0645 4.35733 30.332 4.43797C28.6596 7.42917 26.6376 10.0098 26.6739 13.3139C26.6824 14.0947 27.6341 15.5037 26.5215 16.2216C24.718 13.0891 26.1823 8.3033 28.1981 5.50921C29.0517 4.32703 30.3137 3.18356 31.399 3.06067Z" fill="#0B0014"/>
<path fill-rule="evenodd" clip-rule="evenodd" d="M38.2579 7.49865C37.9095 8.40154 36.8631 9.30383 35.9716 10.1002C35.8161 10.3013 35.8222 10.6643 35.6668 10.8654C34.1986 11.5576 33.8567 14.1169 32.3135 14.2321C32.8974 11.4405 35.7523 9.63316 37.3434 7.34561C37.7184 7.32541 38.0781 7.3225 38.2579 7.49865Z" fill="#0B0014"/>
<path fill-rule="evenodd" clip-rule="evenodd" d="M39.4773 7.95774C39.7783 8.06349 39.8836 8.36589 39.9345 8.72291C38.6257 9.60224 37.8584 11.0255 36.5813 11.9366C36.4645 13.1566 35.544 14.46 34.7522 14.0791C35.3375 11.6524 37.4958 9.49206 39.4773 7.95774Z" fill="#0B0014"/>
<path fill-rule="evenodd" clip-rule="evenodd" d="M41.154 9.18201C40.5335 10.1403 39.6927 10.8776 38.7152 11.4775C38.1805 12.114 37.9415 13.0472 37.0386 13.3139C37.2215 11.3464 39.2441 9.923 41.154 9.18201Z" fill="#0B0014"/>
<path fill-rule="evenodd" clip-rule="evenodd" d="M46.4887 9.79415C46.9097 9.72865 46.6317 10.3647 46.946 10.4063C45.5497 11.4587 44.2774 13.0016 44.5073 14.8443C45.2714 14.2353 46.1649 13.1753 47.2509 13.773C47.9811 15.7836 46.4386 17.4634 44.8121 18.5171C44.1273 18.2987 43.0378 17.801 43.5927 16.8337C44.0469 17.046 44.6105 17.2394 44.8121 17.2928C45.382 16.5388 47.3024 15.8541 46.3363 14.5382C45.5434 14.8133 45.2985 15.6387 44.6597 16.0685C43.8932 16.226 43.824 15.6833 43.4403 15.4564C43.547 12.4191 44.6079 11.1525 46.4887 9.79415Z" fill="#0B0014"/>
<path fill-rule="evenodd" clip-rule="evenodd" d="M41.9161 10.1002C42.0518 10.168 42.1888 10.2346 42.2209 10.4063C42.0226 11.0743 41.5699 11.487 40.8491 11.6306C40.0715 12.4963 39.0913 13.9274 37.9531 13.9261C38.357 12.3337 40.2745 10.9589 41.9161 10.1002Z" fill="#0B0014"/>
<path fill-rule="evenodd" clip-rule="evenodd" d="M20.577 12.0897C22.9589 13.3199 24.1243 15.7718 25.7594 17.7519C25.4151 17.8376 25.9441 17.9906 25.607 18.211C23.6453 17.0648 21.7232 14.5633 20.577 12.0897Z" fill="#0B0014"/>
<path fill-rule="evenodd" clip-rule="evenodd" d="M18.4431 12.8548C20.7579 14.5723 23.0478 16.35 24.54 18.5171C24.0044 19.085 23.0473 18.1922 22.5585 17.7519C21.0739 16.4144 19.1321 14.2607 18.4431 12.8548Z" fill="#0B0014"/>
<path fill-rule="evenodd" clip-rule="evenodd" d="M17.5286 14.0791H17.9858C19.0092 16.0659 21.8912 16.9872 22.5585 18.8231C20.1838 17.9417 18.5544 16.3134 17.5286 14.0791Z" fill="#0B0014"/>
<path fill-rule="evenodd" clip-rule="evenodd" d="M31.2465 25.0975C32.5297 25.1547 32.7626 26.0146 32.4659 26.6278C32.0176 26.6139 31.6309 26.3109 31.0941 26.0157C31.0742 25.6392 31.0712 25.2781 31.2465 25.0975Z" fill="#0B0014"/>
<path fill-rule="evenodd" clip-rule="evenodd" d="M23.3206 26.9339C24.0727 27.148 24.8906 27.2961 24.6924 28.4642C23.8327 28.9233 22.8237 27.8154 23.3206 26.9339Z" fill="#0B0014"/>
<path fill-rule="evenodd" clip-rule="evenodd" d="M26.6739 29.2294C27.4212 30.4685 26.9565 31.3019 27.2836 32.9022C26.4449 32.9992 25.5121 31.9488 24.6924 31.5249C25.0841 30.4889 26.5062 30.4904 26.6739 29.2294Z" fill="#FBFBF2"/>
<path fill-rule="evenodd" clip-rule="evenodd" d="M35.9716 33.0553C35.7888 34.2094 34.7266 34.4142 34.2949 33.6674C34.5906 32.8823 35.528 32.5487 35.9716 33.0553Z" fill="#0B0014"/>
<path fill-rule="evenodd" clip-rule="evenodd" d="M82.3079 35.6568C79.2134 41.6974 76.0263 50.0916 72.248 56.6224C72.604 55.0035 73.1484 53.1565 73.9247 51.4193C74.1794 50.8492 74.76 50.4596 74.9916 49.8889C75.9469 47.5356 77.4886 44.7586 78.6498 42.2373C79.2787 40.8717 79.4515 39.2275 80.6313 38.1054C80.9803 37.0785 81.1342 35.8558 82.3079 35.6568Z" fill="#0B0014"/>
<path fill-rule="evenodd" clip-rule="evenodd" d="M14.4801 38.7175C15.1015 39.6585 13.1708 40.5204 12.9559 41.6251C12.2014 40.759 13.6591 39.3832 14.4801 38.7175Z" fill="#FBFBF2"/>
<path fill-rule="evenodd" clip-rule="evenodd" d="M37.0385 44.5328C37.5247 44.4016 37.5099 44.7736 37.8006 44.8388C37.6364 45.2863 37.3793 45.6401 36.7336 45.604C36.8342 44.9291 36.7093 44.9766 37.0385 44.5328Z" fill="#FBFBF2"/>
<path fill-rule="evenodd" clip-rule="evenodd" d="M63.2552 59.5301C62.2205 60.2831 60.5255 60.0084 59.2922 59.9892C52.3674 59.8807 46.7741 56.1463 40.087 59.224C40.9222 57.9009 42.8165 57.529 43.8976 57.3876C48.8214 56.7435 53.6649 58.6847 58.3777 58.9179C59.2628 58.9617 59.9834 59.2243 60.8164 59.377C61.5892 59.5193 62.5937 58.7909 63.2552 59.5301Z" fill="#0B0014"/>
<path fill-rule="evenodd" clip-rule="evenodd" d="M56.3961 62.5907C51.031 61.8037 45.6801 60.6074 39.9346 61.9786C41.1134 60.3036 43.1053 60.8861 44.3548 60.2952C48.1181 60.5202 52.927 60.5248 56.3961 62.5907Z" fill="#0B0014"/>
</g>
<defs>
<clipPath id="clip0_913_326">
<rect width="90" height="70" fill="white"/>
</clipPath>
</defs>
</svg>
